<?xml version="1.0" encoding="UTF-8"?>
<svg id="Layer_1" data-name="Layer 1" xmlns="http://www.w3.org/2000/svg" viewBox="0 0 512 512">
  <defs>
    <style>
      .cls-1 {
        fill: #f1572b;
      }
    </style>
  </defs>
  <path class="cls-1" d="M449.18,383.02l-66.45,66.32c-14.32,14.28-14.32,37.45,0,51.73,7.15,7.15,16.54,10.72,25.92,10.72s18.76-3.57,25.92-10.72l66.45-66.32c14.32-14.28,14.32-37.45,0-51.74-14.31-14.28-37.53-14.28-51.83,0Z"/>
  <path class="cls-1" d="M36.78,139.3c9.38,0,18.76-3.57,25.92-10.71l65.78-65.65c14.32-14.29,14.32-37.45,0-51.74-14.31-14.28-37.53-14.29-51.84,0L10.87,76.84c-14.32,14.29-14.32,37.45,0,51.74,7.16,7.14,16.54,10.71,25.92,10.71Z"/>
  <path class="cls-1" d="M36.65,324.75c9.38,0,18.76-3.57,25.92-10.71L314.62,62.45c14.32-14.29,14.32-37.45,0-51.74-14.31-14.28-37.53-14.28-51.83,0L10.74,262.3c-14.32,14.29-14.32,37.45,0,51.74,7.15,7.14,16.54,10.71,25.92,10.71Z"/>
  <path class="cls-1" d="M501,199.03c-14.31-14.28-37.53-14.28-51.83,0l-250.91,250.44c-14.32,14.28-14.32,37.45,0,51.73,7.15,7.15,16.54,10.72,25.91,10.72s18.76-3.57,25.92-10.72l250.91-250.43c14.32-14.29,14.32-37.45,0-51.74Z"/>
  <path class="cls-1" d="M501.26,11.71c-14.31-14.28-37.53-14.28-51.83,0L10.76,449.55c-14.32,14.28-14.32,37.45,0,51.73,7.15,7.15,16.54,10.72,25.92,10.72s18.76-3.57,25.92-10.72L501.26,63.45c14.32-14.29,14.32-37.45,0-51.74Z"/>
</svg>