<?xml version="1.0" encoding="UTF-8"?>
<svg id="Layer_1" data-name="Layer 1" xmlns="http://www.w3.org/2000/svg" viewBox="0 0 566.93 141.73">
  <defs>
    <style>
      .cls-1 {
        fill: #f1572b;
      }

      .cls-2 {
        fill: #fff;
      }
    </style>
  </defs>
  <g>
    <path class="cls-1" d="M109.82,96.59l-13.55,13.55c-2.92,2.92-2.92,7.65,0,10.57,1.46,1.46,3.37,2.19,5.28,2.19s3.83-.73,5.28-2.19l13.55-13.55c2.92-2.92,2.92-7.65,0-10.57-2.92-2.92-7.65-2.92-10.57,0Z"/>
    <path class="cls-1" d="M25.72,46.79c1.91,0,3.83-.73,5.28-2.19l13.41-13.41c2.92-2.92,2.92-7.65,0-10.57-2.92-2.92-7.65-2.92-10.57,0l-13.41,13.41c-2.92,2.92-2.92,7.65,0,10.57,1.46,1.46,3.37,2.19,5.29,2.19Z"/>
    <path class="cls-1" d="M25.7,84.68c1.91,0,3.83-.73,5.28-2.19l51.4-51.4c2.92-2.92,2.92-7.65,0-10.57-2.92-2.92-7.65-2.92-10.57,0l-51.4,51.4c-2.92,2.92-2.92,7.65,0,10.57,1.46,1.46,3.37,2.19,5.28,2.19Z"/>
    <path class="cls-1" d="M120.38,59c-2.92-2.92-7.65-2.92-10.57,0l-51.16,51.16c-2.92,2.92-2.92,7.65,0,10.57,1.46,1.46,3.37,2.19,5.28,2.19s3.83-.73,5.28-2.19l51.16-51.16c2.92-2.92,2.92-7.65,0-10.57Z"/>
    <path class="cls-1" d="M120.44,20.73c-2.92-2.92-7.65-2.92-10.57,0L20.42,110.18c-2.92,2.92-2.92,7.65,0,10.57,1.46,1.46,3.37,2.19,5.28,2.19s3.83-.73,5.28-2.19L120.44,31.3c2.92-2.92,2.92-7.65,0-10.57Z"/>
  </g>
  <g>
    <path class="cls-2" d="M533.32,39.08c0-4.34,3.36-7.87,7.7-7.87,4.34,0,7.7,3.53,7.7,7.87,0,4.34-3.36,7.87-7.7,7.87-4.34,0-7.7-3.53-7.7-7.87ZM547.4,39.08c0-3.62-2.79-6.56-6.39-6.56-3.6,0-6.39,2.94-6.39,6.56,0,3.62,2.79,6.56,6.39,6.56,3.6,0,6.39-2.94,6.39-6.56ZM538.48,42.44v-6.89c0-.31.15-.46.46-.46h2.72c1.57,0,2.46,1.18,2.46,2.57,0,1.11-.57,1.96-1.63,2.29l1.4,2.4c.17.31.04.55-.33.55h-.83c-.26,0-.41-.09-.54-.33l-1.2-2.51h-.89v2.38c0,.31-.17.46-.46.46h-.7c-.31,0-.46-.15-.46-.46ZM541.45,38.78c.63,0,1.02-.46,1.02-1.11,0-.68-.39-1.29-1.02-1.29h-1.35v2.4h1.35Z"/>
    <g>
      <path class="cls-2" d="M166.25,37.12c-1.26-1.26-2.1-3.08-2.1-4.9s.84-3.64,2.1-4.9c1.26-1.26,3.08-2.1,4.9-2.1s3.64.84,4.9,2.1c1.26,1.26,1.96,3.08,1.96,4.9s-.7,3.64-1.96,4.9c-1.26,1.26-3.08,1.96-4.9,1.96s-3.64-.7-4.9-1.96Z"/>
      <path class="cls-2" d="M164.15,116.4v-56.45c0-3.78,3.08-6.86,7-6.86s6.86,3.08,6.86,6.86v56.45c0,3.92-3.08,7-6.86,7s-7-3.08-7-7Z"/>
      <path class="cls-2" d="M256.3,88.1v28.15c0,3.92-3.08,7-7,7s-6.86-3.08-6.86-7v-28.15c0-11.77-9.53-21.29-21.29-21.29s-21.29,9.52-21.29,21.29v28.15c0,3.92-3.08,7-7,7s-6.87-3.08-6.87-7v-28.15c0-19.47,15.83-35.15,35.15-35.15s35.15,15.69,35.15,35.15Z"/>
      <path class="cls-2" d="M303.64,59.81c0,3.92-3.08,7-7,7h-12.32v49.44c0,3.92-3.08,7-7,7s-6.86-3.08-6.86-7v-49.44h-7.7c-3.78,0-6.86-3.08-6.86-7s3.08-6.86,6.86-6.86h7.7c-.14-9.94,3.5-19.05,10.23-25.77,3.78-3.78,8.12-6.58,13.17-8.26,3.5-1.4,7.56.56,8.82,4.2,1.26,3.5-.56,7.56-4.2,8.82-2.94.98-5.6,2.66-7.98,5.04-4.2,4.2-6.16,9.66-6.16,15.97h12.32c3.92,0,7,3.08,7,6.86Z"/>
      <path class="cls-2" d="M345.23,59.95c0,3.78-3.08,7-7,7-11.76,0-21.29,9.52-21.29,21.29v28.15c0,3.78-3.08,7-6.86,7s-7-3.22-7-7v-28.15c0-19.47,15.83-35.15,35.15-35.15,3.92,0,7,3.08,7,6.86Z"/>
      <path class="cls-2" d="M414.27,88.66v27.45c0,4.06-2.94,7-7,7-2.8,0-6.72-2.94-6.72-7-6.02,5.04-12.75,7-20.73,7-19.75,0-35.43-14.71-35.43-34.45s15.68-35.44,35.43-35.44,34.45,15.69,34.45,35.44ZM400.55,88.66c0-11.77-8.96-21.71-20.73-21.71s-21.71,9.94-21.71,21.71,9.94,20.73,21.71,20.73,20.73-8.96,20.73-20.73Z"/>
      <path class="cls-2" d="M422.39,116.4V25.22c0-3.78,3.08-6.86,7-6.86s6.86,3.08,6.86,6.86v91.18c0,3.92-3.08,7-6.86,7s-7-3.08-7-7Z"/>
      <path class="cls-2" d="M447.04,37.12c-1.26-1.26-2.1-3.08-2.1-4.9s.84-3.64,2.1-4.9c1.26-1.26,3.08-2.1,4.9-2.1s3.64.84,4.9,2.1c1.26,1.26,1.96,3.08,1.96,4.9s-.7,3.64-1.96,4.9c-1.26,1.26-3.08,1.96-4.9,1.96s-3.64-.7-4.9-1.96Z"/>
      <path class="cls-2" d="M444.94,116.4v-56.45c0-3.78,3.08-6.86,7-6.86s6.86,3.08,6.86,6.86v56.45c0,3.92-3.08,7-6.86,7s-7-3.08-7-7Z"/>
    </g>
    <path class="cls-1" d="M513.63,76.76l9.73-12.61c2.38-3.08,1.82-7.42-1.26-9.8-2.94-2.38-7.28-1.82-9.66,1.26l-7.88,10.17,9.07,10.98Z"/>
    <path class="cls-2" d="M505.17,88.49l-.02.03-10-12.92h0l-15.49-19.99c-2.38-3.08-6.72-3.64-9.66-1.26-3.08,2.38-3.64,6.72-1.26,9.8l18.49,23.95-18.49,23.95c-2.38,3.08-1.82,7.42,1.26,9.66,1.26.98,2.66,1.54,4.2,1.54,2.1,0,4.06-.98,5.46-2.66l16.38-21.15,16.39,21.15c1.4,1.68,3.36,2.66,5.46,2.66,1.54,0,2.94-.56,4.2-1.54,3.08-2.24,3.64-6.58,1.26-9.66l-18.19-23.57Z"/>
  </g>
</svg>